<svg width="407" height="130" viewBox="0 0 407 130" fill="none" xmlns="http://www.w3.org/2000/svg">
<g clip-path="url(#clip0_2183_134)">
<path d="M273.988 42.5605H250.398V128.211H273.988V42.5605Z" fill="black"/>
<path d="M362.133 41.6702C337.933 41.6402 321.013 57.2302 317.993 79.3402C315.493 96.6102 322.413 115.24 337.483 124.24C350.933 132.71 371.963 132.15 383.323 120.4V128.2H406.733V86.2602C406.733 61.6302 386.763 41.6602 362.133 41.6602V41.6702ZM362.133 107.99C350.133 107.99 340.413 98.2602 340.413 86.2702C340.413 74.2802 350.143 64.5502 362.133 64.5502C374.123 64.5502 383.853 74.2802 383.853 86.2702C383.853 98.2602 374.123 107.99 362.133 107.99Z" fill="black"/>
<path d="M157.523 32.27C157.523 27.09 161.743 22.87 166.923 22.87H183.743V0H166.923C149.103 0 134.653 14.45 134.653 32.27C134.653 36.92 135.643 41.34 137.413 45.33C123.573 51.18 114.383 63.61 112.243 79.34C109.743 96.61 116.663 115.24 131.733 124.24C145.183 132.71 166.213 132.15 177.573 120.4V128.2H200.983V41.67H166.933C161.753 41.67 157.533 37.45 157.533 32.27H157.523ZM178.093 64.55V86.27C178.093 98.27 168.363 107.99 156.373 107.99C144.383 107.99 134.653 98.26 134.653 86.27C134.653 74.28 144.383 64.55 156.373 64.55H178.093Z" fill="black"/>
<path d="M262.276 0C258.486 0 255.356 1.3 252.876 3.9C250.396 6.5 249.156 9.64 249.156 13.3C249.156 16.96 250.396 20.25 252.876 22.79C255.356 25.33 258.486 26.6 262.276 26.6C266.066 26.6 269.336 25.33 271.766 22.79C274.186 20.25 275.406 17.09 275.406 13.3C275.406 9.51 274.196 6.5 271.766 3.9C269.346 1.3 266.176 0 262.276 0Z" fill="black"/>
<path d="M58 42.56L28.33 74.31H23.23V71.68V0H0V128.21H23.23V96.46H28.33L58 128.21H86.37L46.23 85.38L86.37 42.56H58Z" fill="black"/>
</g>
<defs>
<clipPath id="clip0_2183_134">
<rect width="406.73" height="130" fill="white"/>
</clipPath>
</defs>
</svg>
